<svg id="Layer_2" data-name="Layer 2" xmlns="http://www.w3.org/2000/svg" viewBox="0 0 452.59 160.5"><defs><style>.cls-1{fill:none;stroke:#fcfcfc;stroke-miterlimit:10;stroke-width:4px;}.cls-2{fill:#fcfcfc;}</style></defs><rect class="cls-1" x="355.61" y="491.61" width="80.21" height="80.21" transform="translate(155.71 -596.25) rotate(45)"/><rect class="cls-2" x="128.24" y="54.92" width="32.51" height="9.25"/><path class="cls-2" d="M510.4,560.13l4.37-10.62q7,4.93,13.81,4.93,10.44,0,10.44-7.3a10.3,10.3,0,0,0-2.46-6.51q-2.46-3.11-10.14-7t-10.35-6.33a17,17,0,0,1-4.1-5.9,19.31,19.31,0,0,1-1.44-7.57A16.55,16.55,0,0,1,516.21,501q5.67-5.11,14.56-5.11,11.58,0,17,4.33l-3.6,10.21A22.25,22.25,0,0,0,531,506a8.85,8.85,0,0,0-6.36,2.17,7.46,7.46,0,0,0-2.25,5.63q0,5.75,12.71,11.94a41.62,41.62,0,0,1,9.67,6,18.7,18.7,0,0,1,4.51,6.43,20.85,20.85,0,0,1,1.55,8.18,16.5,16.5,0,0,1-6.41,13.35Q538,565,527.26,565A30.44,30.44,0,0,1,510.4,560.13Z" transform="translate(-336.17 -472.17)"/><path class="cls-2" d="M598.92,518.88,594,527.41q-4-3.78-10.76-3.79a12.9,12.9,0,0,0-10.23,4.31q-3.76,4.3-3.76,11.92,0,15.36,14.63,15.36A16.56,16.56,0,0,0,595.09,551l4.19,9a29.19,29.19,0,0,1-8.68,3.92,41.62,41.62,0,0,1-8.78.82q-11.3,0-17.84-6.59t-6.54-18.3q0-11.54,7.15-18.64t19.51-7.11A23.8,23.8,0,0,1,598.92,518.88Z" transform="translate(-336.17 -472.17)"/><path class="cls-2" d="M640,563.83V533.74a9.61,9.61,0,0,0-2.82-7.24,10.17,10.17,0,0,0-7.39-2.74,12,12,0,0,0-5.69,1.53,10.55,10.55,0,0,0-4.11,3.48v35.06H608.4v-67L620,494.09v24q4.42-4,12.17-4,9.17,0,14.22,5.08t5.06,14.56v30.09Z" transform="translate(-336.17 -472.17)"/><path class="cls-2" d="M660.54,539.3q0-11.16,6.45-18.18t17-7q11.13,0,17.28,6.74t6.15,18.46q0,11.67-6.26,18.56T684,564.74q-11.12,0-17.29-7T660.54,539.3Zm11.85,0q0,16.14,11.62,16.14a10,10,0,0,0,8.46-4.19q3.12-4.2,3.12-12,0-15.9-11.58-15.9a10,10,0,0,0-8.47,4.19Q672.39,531.79,672.39,539.3Z" transform="translate(-336.17 -472.17)"/><path class="cls-2" d="M713.37,539.3q0-11.16,6.45-18.18t17-7q11.13,0,17.28,6.74t6.15,18.46q0,11.67-6.27,18.56t-17.16,6.88q-11.12,0-17.3-7T713.37,539.3Zm11.85,0q0,16.14,11.62,16.14a10,10,0,0,0,8.46-4.19q3.12-4.2,3.12-12,0-15.9-11.58-15.9a10.05,10.05,0,0,0-8.48,4.19Q725.22,531.79,725.22,539.3Z" transform="translate(-336.17 -472.17)"/><path class="cls-2" d="M771.35,496.82l11.39-2.73V549q0,9,5.38,10.75-2.64,5-9,5-7.76,0-7.75-10.76Z" transform="translate(-336.17 -472.17)"/><path class="cls-2" d="M388.27,535.51v1.34a7.2,7.2,0,0,0,1.56,4.93,5.14,5.14,0,0,0,4.07,1.77,13.34,13.34,0,0,0,5.43-1.24,29.65,29.65,0,0,0,5.6-3.26q2.79-2,6.8-5.47v3.27A66.39,66.39,0,0,1,400.38,548a18.08,18.08,0,0,1-10.77,3.88,9,9,0,0,1-7.55-3.69q-2.79-3.71-2.78-10.13a20.12,20.12,0,0,1,2.62-10.2,38.84,38.84,0,0,1,8.57-9.67,33.08,33.08,0,0,1,8.09-5.25,18.12,18.12,0,0,1,7.18-1.77,6.33,6.33,0,0,1,4,1.16,4.11,4.11,0,0,1,1.47,3.45,11.13,11.13,0,0,1-2.52,6.72,29,29,0,0,1-7.68,6.64A78,78,0,0,1,388.27,535.51Zm.54-3.48a30.56,30.56,0,0,0,8.25-4.66,23.84,23.84,0,0,0,5.06-5.33,8.38,8.38,0,0,0,1.63-3.72c0-.82-.37-1.23-1.12-1.23a7.67,7.67,0,0,0-3.13,1.23,25.62,25.62,0,0,0-4.4,3.21,23.89,23.89,0,0,0-4,4.66A15.24,15.24,0,0,0,388.81,532Z" transform="translate(-336.17 -472.17)"/><path class="cls-2" d="M358.28,620.31H348.09a5.09,5.09,0,0,0,1.36,3.81,4.27,4.27,0,0,0,3.09,1.16,5.3,5.3,0,0,0,3.59-1.25l1.05,1.8a4.68,4.68,0,0,1-1.78,1,9.61,9.61,0,0,1-3.35.55,6.24,6.24,0,0,1-4.53-1.81,7.07,7.07,0,0,1-2.07-5.35,7.57,7.57,0,0,1,2.12-5.61,6.18,6.18,0,0,1,4.5-1.89,6.44,6.44,0,0,1,4.74,1.7,5.81,5.81,0,0,1,1.66,4.34A5.75,5.75,0,0,1,358.28,620.31Zm-6.09-5.47a4,4,0,0,0-4,3.64H356a3.58,3.58,0,0,0-1-2.53A3.7,3.7,0,0,0,352.19,614.84Z" transform="translate(-336.17 -472.17)"/><path class="cls-2" d="M368.75,609.44a4.51,4.51,0,0,0-1.42-.26,2.36,2.36,0,0,0-1.89.87,3.26,3.26,0,0,0-.75,2.2,3.78,3.78,0,0,0,.07.74h2.87v2.12h-2.87v12h-2.51v-12h-2.06V613h2.06a6.25,6.25,0,0,1,1.33-4.24,4.44,4.44,0,0,1,3.53-1.55,7.57,7.57,0,0,1,2.34.4Z" transform="translate(-336.17 -472.17)"/><path class="cls-2" d="M378.74,609.44a4.51,4.51,0,0,0-1.42-.26,2.36,2.36,0,0,0-1.89.87,3.26,3.26,0,0,0-.75,2.2,3.78,3.78,0,0,0,.07.74h2.87v2.12h-2.87v12h-2.51v-12h-2.06V613h2.06a6.25,6.25,0,0,1,1.33-4.24,4.43,4.43,0,0,1,3.53-1.55,7.57,7.57,0,0,1,2.34.4Z" transform="translate(-336.17 -472.17)"/><path class="cls-2" d="M382.31,627.13v-12h-1.94V613h4.44v14.14Zm1.37-19.48a1.47,1.47,0,0,1,1.1.46,1.44,1.44,0,0,1,.46,1.08,1.55,1.55,0,0,1-1.56,1.56,1.55,1.55,0,1,1,0-3.1Z" transform="translate(-336.17 -472.17)"/><path class="cls-2" d="M399.46,614.14l-1.24,1.77a3.71,3.71,0,0,0-1.35-.73,5.92,5.92,0,0,0-1.91-.34,4,4,0,0,0-3.24,1.43,6,6,0,0,0-1.2,3.93,5.35,5.35,0,0,0,1.22,3.78,4.46,4.46,0,0,0,3.41,1.3,5.63,5.63,0,0,0,3.4-1.31l1,2.11a8.93,8.93,0,0,1-5,1.31,6.36,6.36,0,0,1-4.78-1.94,7.23,7.23,0,0,1-1.88-5.25,7.49,7.49,0,0,1,2-5.42,7.48,7.48,0,0,1,7.74-1.59A6.88,6.88,0,0,1,399.46,614.14Z" transform="translate(-336.17 -472.17)"/><path class="cls-2" d="M403.4,627.13v-12h-1.94V613h4.44v14.14Zm1.37-19.48a1.57,1.57,0,0,1,1.56,1.54,1.53,1.53,0,0,1-.46,1.11,1.56,1.56,0,0,1-2.19,0,1.53,1.53,0,0,1-.46-1.11,1.48,1.48,0,0,1,.45-1.09A1.5,1.5,0,0,1,404.77,607.65Z" transform="translate(-336.17 -472.17)"/><path class="cls-2" d="M421.79,620.31H411.6a5.13,5.13,0,0,0,1.36,3.81,4.27,4.27,0,0,0,3.09,1.16,5.29,5.29,0,0,0,3.59-1.25l1.06,1.8a4.68,4.68,0,0,1-1.78,1,9.71,9.71,0,0,1-3.36.55,6.23,6.23,0,0,1-4.52-1.81,7.07,7.07,0,0,1-2.07-5.35,7.53,7.53,0,0,1,2.12-5.61,6.18,6.18,0,0,1,4.5-1.89,6.47,6.47,0,0,1,4.74,1.7,5.81,5.81,0,0,1,1.66,4.34A5.74,5.74,0,0,1,421.79,620.31Zm-6.08-5.47a3.9,3.9,0,0,0-2.81,1.08,4,4,0,0,0-1.23,2.56h7.83a3.58,3.58,0,0,0-.95-2.53A3.73,3.73,0,0,0,415.71,614.84Z" transform="translate(-336.17 -472.17)"/><path class="cls-2" d="M433.33,627.13v-8.22a5.45,5.45,0,0,0-.68-3.16,2.67,2.67,0,0,0-2.28-.91,3.64,3.64,0,0,0-1.79.52,3.89,3.89,0,0,0-1.44,1.26v10.51h-2.51V613h1.72l.79,1.83a4.34,4.34,0,0,1,4.05-2.09c3.1,0,4.64,1.88,4.64,5.65v8.75Z" transform="translate(-336.17 -472.17)"/><path class="cls-2" d="M440.29,615h-1.63v-2h1.63v-3l2.51-1V613h3.88v2H442.8v7a4.14,4.14,0,0,0,.6,2.54,2.34,2.34,0,0,0,1.94.75,4.59,4.59,0,0,0,2-.49l.37,2.21a14.09,14.09,0,0,1-3.42.39,3.68,3.68,0,0,1-2.83-1.25,4.45,4.45,0,0,1-1.16-3.14Z" transform="translate(-336.17 -472.17)"/><path class="cls-2" d="M457.33,626.28l.89-2.37a6.82,6.82,0,0,0,3.37,1.37c1.55,0,2.33-.65,2.33-1.95q0-1.41-2.25-2.4a17.66,17.66,0,0,1-2.33-1.21,5.16,5.16,0,0,1-1-.93,3.5,3.5,0,0,1-.88-2.36,3.24,3.24,0,0,1,1.27-2.72,5.27,5.27,0,0,1,3.31-1,10.73,10.73,0,0,1,3.9,1l-.72,2.32a4.8,4.8,0,0,0-3-1.19,2.61,2.61,0,0,0-1.51.42,1.28,1.28,0,0,0-.62,1.07,2.22,2.22,0,0,0,1.55,2.06l1.79.82a6.19,6.19,0,0,1,2.4,1.72,3.79,3.79,0,0,1,.76,2.41,3.62,3.62,0,0,1-1.34,3,5.77,5.77,0,0,1-3.69,1.07A8.4,8.4,0,0,1,457.33,626.28Z" transform="translate(-336.17 -472.17)"/><path class="cls-2" d="M479.86,614.14l-1.24,1.77a3.87,3.87,0,0,0-1.36-.73,5.87,5.87,0,0,0-1.9-.34,4,4,0,0,0-3.25,1.43,6,6,0,0,0-1.2,3.93,5.31,5.31,0,0,0,1.23,3.78,4.44,4.44,0,0,0,3.4,1.3A5.65,5.65,0,0,0,479,624l1,2.11a9,9,0,0,1-5,1.31,6.36,6.36,0,0,1-4.78-1.94,7.19,7.19,0,0,1-1.89-5.25,7.49,7.49,0,0,1,2-5.42,7.08,7.08,0,0,1,5.37-2,6.94,6.94,0,0,1,2.37.46A7.12,7.12,0,0,1,479.86,614.14Z" transform="translate(-336.17 -472.17)"/><path class="cls-2" d="M491.29,627.13v-8.88a3.72,3.72,0,0,0-.78-2.5,2.75,2.75,0,0,0-2.19-.91,3.57,3.57,0,0,0-1.83.54,4.31,4.31,0,0,0-1.41,1.24v10.51h-2.5V607.2h2.5v7.35a3.81,3.81,0,0,1,1.62-1.3,5.33,5.33,0,0,1,2.3-.52,4.39,4.39,0,0,1,3.52,1.48,6,6,0,0,1,1.27,4v8.88Z" transform="translate(-336.17 -472.17)"/><path class="cls-2" d="M496.42,620a7.77,7.77,0,0,1,1.76-5.29,6.53,6.53,0,0,1,9.35-.08,9.36,9.36,0,0,1,0,10.76,5.88,5.88,0,0,1-4.67,2,5.82,5.82,0,0,1-4.71-2A8,8,0,0,1,496.42,620Zm2.64,0c0,3.54,1.25,5.32,3.76,5.32a3.17,3.17,0,0,0,2.75-1.43,6.65,6.65,0,0,0,1-3.89q0-5.25-3.75-5.25a3.23,3.23,0,0,0-2.74,1.39A6.46,6.46,0,0,0,499.06,620Z" transform="translate(-336.17 -472.17)"/><path class="cls-2" d="M510.92,620a7.77,7.77,0,0,1,1.76-5.29,6.53,6.53,0,0,1,9.35-.08,9.36,9.36,0,0,1,0,10.76,6.54,6.54,0,0,1-9.38,0A8.07,8.07,0,0,1,510.92,620Zm2.64,0c0,3.54,1.26,5.32,3.76,5.32a3.17,3.17,0,0,0,2.75-1.43,6.65,6.65,0,0,0,1-3.89q0-5.25-3.75-5.25a3.24,3.24,0,0,0-2.74,1.39A6.46,6.46,0,0,0,513.56,620Z" transform="translate(-336.17 -472.17)"/><path class="cls-2" d="M526.55,623.13V607.2h2.5v15.51a2.42,2.42,0,0,0,.66,1.79,2.31,2.31,0,0,0,1.71.65v2.24Q526.54,627.39,526.55,623.13Z" transform="translate(-336.17 -472.17)"/><path class="cls-2" d="M558.83,627.13v-9c0-2.22-1-3.34-2.89-3.34a2.94,2.94,0,0,0-1.71.56,3,3,0,0,0-1.08,1.28v10.45h-2.51v-10a2,2,0,0,0-.78-1.64,3.36,3.36,0,0,0-2.08-.6,2.91,2.91,0,0,0-1.6.58A3.63,3.63,0,0,0,545,616.7v10.43h-2.51V613h1.64l.83,1.64a4.4,4.4,0,0,1,3.63-1.9q3,0,4.25,1.89a3.19,3.19,0,0,1,1.57-1.35,5.46,5.46,0,0,1,2.36-.54,4.37,4.37,0,0,1,3.39,1.3,5.18,5.18,0,0,1,1.2,3.65v9.45Z" transform="translate(-336.17 -472.17)"/><path class="cls-2" d="M572.88,625.5a5.53,5.53,0,0,1-4.61,1.89,4,4,0,0,1-2.88-1.21,4,4,0,0,1-1.22-3,4.49,4.49,0,0,1,1.88-3.63,7.5,7.5,0,0,1,4.8-1.49,5.58,5.58,0,0,1,1.79.35q0-3.43-3.06-3.44a4.92,4.92,0,0,0-3.62,1.27l-1.05-2.1a6.12,6.12,0,0,1,2-1,7.6,7.6,0,0,1,2.41-.42,5,5,0,0,1,5.86,5.85v5.06a2.61,2.61,0,0,0,1.11,2.49v1.25a4.71,4.71,0,0,1-2.29-.44A2.44,2.44,0,0,1,572.88,625.5Zm-.24-5.31a8.8,8.8,0,0,0-1.66-.27,4.76,4.76,0,0,0-3.1,1,2.9,2.9,0,0,0-1.2,2.31c0,1.47.86,2.2,2.6,2.2a4.25,4.25,0,0,0,3.36-1.81Z" transform="translate(-336.17 -472.17)"/><path class="cls-2" d="M587.79,627.13v-8.22a5.38,5.38,0,0,0-.68-3.16,2.64,2.64,0,0,0-2.27-.91,3.68,3.68,0,0,0-1.8.52,4.05,4.05,0,0,0-1.44,1.26v10.51h-2.5V613h1.71l.79,1.83a4.36,4.36,0,0,1,4-2.09q4.65,0,4.65,5.65v8.75Z" transform="translate(-336.17 -472.17)"/><path class="cls-2" d="M601.85,625.5a5.54,5.54,0,0,1-4.61,1.89,3.93,3.93,0,0,1-2.88-1.21,4,4,0,0,1-1.22-3,4.46,4.46,0,0,1,1.88-3.63,7.49,7.49,0,0,1,4.79-1.49,5.64,5.64,0,0,1,1.8.35q0-3.43-3.06-3.44a4.92,4.92,0,0,0-3.62,1.27l-1-2.1a6.12,6.12,0,0,1,2-1,7.6,7.6,0,0,1,2.41-.42,5,5,0,0,1,5.86,5.85v5.06a2.61,2.61,0,0,0,1.11,2.49v1.25a4.68,4.68,0,0,1-2.29-.44A2.44,2.44,0,0,1,601.85,625.5Zm-.24-5.31a8.92,8.92,0,0,0-1.66-.27,4.76,4.76,0,0,0-3.1,1,2.88,2.88,0,0,0-1.21,2.31c0,1.47.87,2.2,2.6,2.2a4.27,4.27,0,0,0,3.37-1.81Z" transform="translate(-336.17 -472.17)"/><path class="cls-2" d="M607.55,631l1.36-2a7.44,7.44,0,0,0,4,1.46,5.24,5.24,0,0,0,2.69-.58,1.7,1.7,0,0,0,1-1.46c0-1.15-.82-1.72-2.48-1.72a9.9,9.9,0,0,0-1.53.21,9.89,9.89,0,0,1-1.73.21c-2,0-3-.75-3-2.27a1.63,1.63,0,0,1,.71-1.26,4.37,4.37,0,0,1,1.75-.82,5.35,5.35,0,0,1-1.44-8.55,5.28,5.28,0,0,1,3.81-1.48,5.44,5.44,0,0,1,3.26.86l1.26-1.51,1.63,1.55-1.5,1.13a5.26,5.26,0,0,1,1,3.28,5.11,5.11,0,0,1-1.33,3.59,5.28,5.28,0,0,1-3.5,1.66l-2.07.21a4.26,4.26,0,0,0-1,.28c-.41.17-.62.38-.62.64s.43.54,1.29.54a11.14,11.14,0,0,0,1.77-.2,11.55,11.55,0,0,1,1.78-.21,4.9,4.9,0,0,1,3.26,1,3.44,3.44,0,0,1,1.17,2.77,3.68,3.68,0,0,1-1.75,3.15,7.66,7.66,0,0,1-4.43,1.2,9.28,9.28,0,0,1-2.89-.49A7.93,7.93,0,0,1,607.55,631Zm5.32-16.24a2.76,2.76,0,0,0-2.14.92,3.27,3.27,0,0,0-.82,2.25,3.71,3.71,0,0,0,.8,2.44,2.64,2.64,0,0,0,2.16,1,2.51,2.51,0,0,0,2.08-.94,3.85,3.85,0,0,0,.75-2.47,3.31,3.31,0,0,0-.81-2.25A2.59,2.59,0,0,0,612.87,614.75Z" transform="translate(-336.17 -472.17)"/><path class="cls-2" d="M633.53,620.31H623.34a5.13,5.13,0,0,0,1.36,3.81,4.27,4.27,0,0,0,3.09,1.16,5.29,5.29,0,0,0,3.59-1.25l1.06,1.8a4.66,4.66,0,0,1-1.79,1,9.61,9.61,0,0,1-3.35.55,6.23,6.23,0,0,1-4.52-1.81,7.07,7.07,0,0,1-2.08-5.35,7.54,7.54,0,0,1,2.13-5.61,6.18,6.18,0,0,1,4.5-1.89,6.47,6.47,0,0,1,4.74,1.7,5.81,5.81,0,0,1,1.66,4.34A5.74,5.74,0,0,1,633.53,620.31Zm-6.08-5.47a3.9,3.9,0,0,0-2.81,1.08,4,4,0,0,0-1.23,2.56h7.83a3.58,3.58,0,0,0-1-2.53A3.73,3.73,0,0,0,627.45,614.84Z" transform="translate(-336.17 -472.17)"/><path class="cls-2" d="M652.73,627.13v-9c0-2.22-1-3.34-2.89-3.34a3.18,3.18,0,0,0-2.78,1.84v10.45h-2.51v-10a2,2,0,0,0-.78-1.64,3.36,3.36,0,0,0-2.08-.6,3,3,0,0,0-1.61.58,3.59,3.59,0,0,0-1.2,1.28v10.43h-2.51V613H638l.83,1.64a4.38,4.38,0,0,1,3.63-1.9c2,0,3.44.63,4.24,1.89a3.27,3.27,0,0,1,1.58-1.35,5.46,5.46,0,0,1,2.36-.54A4.37,4.37,0,0,1,654,614a5.18,5.18,0,0,1,1.2,3.65v9.45Z" transform="translate(-336.17 -472.17)"/><path class="cls-2" d="M670.71,620.31H660.52a5.09,5.09,0,0,0,1.36,3.81,4.27,4.27,0,0,0,3.09,1.16,5.3,5.3,0,0,0,3.59-1.25l1.05,1.8a4.68,4.68,0,0,1-1.78,1,9.61,9.61,0,0,1-3.35.55,6.24,6.24,0,0,1-4.53-1.81,7.07,7.07,0,0,1-2.07-5.35,7.57,7.57,0,0,1,2.12-5.61,6.18,6.18,0,0,1,4.5-1.89,6.44,6.44,0,0,1,4.74,1.7,5.81,5.81,0,0,1,1.66,4.34A5.75,5.75,0,0,1,670.71,620.31Zm-6.09-5.47a4,4,0,0,0-4,3.64h7.83a3.58,3.58,0,0,0-.95-2.53A3.7,3.7,0,0,0,664.62,614.84Z" transform="translate(-336.17 -472.17)"/><path class="cls-2" d="M682.24,627.13v-8.22a5.45,5.45,0,0,0-.68-3.16,2.65,2.65,0,0,0-2.28-.91,3.64,3.64,0,0,0-1.79.52,4,4,0,0,0-1.44,1.26v10.51h-2.51V613h1.72l.79,1.83a4.36,4.36,0,0,1,4.05-2.09q4.65,0,4.65,5.65v8.75Z" transform="translate(-336.17 -472.17)"/><path class="cls-2" d="M689.21,615h-1.64v-2h1.64v-3l2.51-1V613h3.88v2h-3.88v7a4.14,4.14,0,0,0,.6,2.54,2.32,2.32,0,0,0,1.93.75,4.55,4.55,0,0,0,2-.49l.37,2.21a14.09,14.09,0,0,1-3.42.39,3.69,3.69,0,0,1-2.83-1.25,4.44,4.44,0,0,1-1.15-3.14Z" transform="translate(-336.17 -472.17)"/><path class="cls-2" d="M706.5,626.24l1-2.42a6.58,6.58,0,0,0,1.84.9,6.4,6.4,0,0,0,2,.36,3.57,3.57,0,0,0,2.48-.84,2.76,2.76,0,0,0,.94-2.15,3.37,3.37,0,0,0-.52-1.82,6.36,6.36,0,0,0-2.62-1.83l-1.56-.72a6.24,6.24,0,0,1-2.76-2.19,5.63,5.63,0,0,1-.79-3,4.7,4.7,0,0,1,1.53-3.59,5.57,5.57,0,0,1,3.94-1.43c2.13,0,3.62.35,4.46,1l-.78,2.29a6.3,6.3,0,0,0-1.61-.74,6.65,6.65,0,0,0-2-.35,2.88,2.88,0,0,0-2.12.76,2.68,2.68,0,0,0-.77,2,3.17,3.17,0,0,0,.28,1.35,2.75,2.75,0,0,0,.77,1,11,11,0,0,0,2,1.15l1.58.75a5.42,5.42,0,0,1,3.58,5.55,4.73,4.73,0,0,1-1.75,3.69,6.92,6.92,0,0,1-4.68,1.52A7.7,7.7,0,0,1,706.5,626.24Z" transform="translate(-336.17 -472.17)"/><path class="cls-2" d="M725.56,629.53a4.27,4.27,0,0,1-2,2.24,6.85,6.85,0,0,1-3.49.9v-2.24a4.77,4.77,0,0,0,2.69-.74,2.1,2.1,0,0,0,1.13-1.78,6.71,6.71,0,0,0-.41-2.29c-.28-.76-.63-1.69-1.06-2.79L718.54,613h2.56l4.16,10.93L729,613h2.56Z" transform="translate(-336.17 -472.17)"/><path class="cls-2" d="M732.57,626.28l.89-2.37a6.82,6.82,0,0,0,3.37,1.37c1.55,0,2.33-.65,2.33-1.95q0-1.41-2.25-2.4a17.66,17.66,0,0,1-2.33-1.21,5.16,5.16,0,0,1-1-.93,3.5,3.5,0,0,1-.88-2.36,3.24,3.24,0,0,1,1.27-2.72,5.29,5.29,0,0,1,3.31-1,10.73,10.73,0,0,1,3.9,1l-.72,2.32a4.8,4.8,0,0,0-3-1.19,2.61,2.61,0,0,0-1.51.42,1.28,1.28,0,0,0-.62,1.07,2.22,2.22,0,0,0,1.55,2.06l1.79.82a6.19,6.19,0,0,1,2.4,1.72,3.74,3.74,0,0,1,.76,2.41,3.62,3.62,0,0,1-1.34,3,5.75,5.75,0,0,1-3.69,1.07A8.4,8.4,0,0,1,732.57,626.28Z" transform="translate(-336.17 -472.17)"/><path class="cls-2" d="M745.33,615H743.7v-2h1.63v-3l2.51-1V613h3.88v2h-3.88v7a4.14,4.14,0,0,0,.6,2.54,2.33,2.33,0,0,0,1.93.75,4.59,4.59,0,0,0,2-.49l.37,2.21a14.09,14.09,0,0,1-3.42.39,3.68,3.68,0,0,1-2.83-1.25,4.45,4.45,0,0,1-1.16-3.14Z" transform="translate(-336.17 -472.17)"/><path class="cls-2" d="M767.06,620.31H756.87a5.09,5.09,0,0,0,1.36,3.81,4.27,4.27,0,0,0,3.08,1.16A5.29,5.29,0,0,0,764.9,624l1.06,1.8a4.68,4.68,0,0,1-1.78,1,9.61,9.61,0,0,1-3.35.55,6.24,6.24,0,0,1-4.53-1.81,7.07,7.07,0,0,1-2.07-5.35,7.57,7.57,0,0,1,2.12-5.61,6.18,6.18,0,0,1,4.5-1.89,6.44,6.44,0,0,1,4.74,1.7,5.81,5.81,0,0,1,1.66,4.34A5.75,5.75,0,0,1,767.06,620.31ZM761,614.84a3.92,3.92,0,0,0-2.81,1.08,4,4,0,0,0-1.23,2.56h7.83a3.58,3.58,0,0,0-1-2.53A3.71,3.71,0,0,0,761,614.84Z" transform="translate(-336.17 -472.17)"/><path class="cls-2" d="M786.26,627.13v-9c0-2.22-1-3.34-2.89-3.34a2.94,2.94,0,0,0-1.71.56,3,3,0,0,0-1.08,1.28v10.45h-2.51v-10a2,2,0,0,0-.78-1.64,3.34,3.34,0,0,0-2.08-.6,2.91,2.91,0,0,0-1.6.58,3.63,3.63,0,0,0-1.21,1.28v10.43h-2.51V613h1.64l.83,1.64a4.4,4.4,0,0,1,3.63-1.9q3,0,4.25,1.89a3.19,3.19,0,0,1,1.57-1.35,5.46,5.46,0,0,1,2.36-.54,4.37,4.37,0,0,1,3.39,1.3,5.18,5.18,0,0,1,1.2,3.65v9.45Z" transform="translate(-336.17 -472.17)"/></svg>