<svg xmlns="http://www.w3.org/2000/svg" x="0px" y="0px"
width="26" height="26"
viewBox="0 0 171 171"
style=" fill:#000000;"><g fill="none" fill-rule="nonzero" stroke="none" stroke-width="1" stroke-linecap="butt" stroke-linejoin="miter" stroke-miterlimit="10" stroke-dasharray="" stroke-dashoffset="0" font-family="none" font-weight="none" font-size="none" text-anchor="none" style="mix-blend-mode: normal"><path d="M0,171.98863v-171.98863h171.98863v171.98863z" fill="none"></path><g fill="#2ecc71"><path d="M85.5,0c-47.22231,0 -85.5,38.27769 -85.5,85.5c0,42.86838 31.57581,78.25881 72.72104,84.44112v-61.78362h-21.15796v-22.47335h21.15796v-14.95592c0,-24.76212 12.06208,-35.62719 32.64127,-35.62719c9.85223,0 15.06773,0.73004 17.53408,1.06546v19.61896h-14.03515c-8.73415,0 -11.78585,8.28035 -11.78585,17.61958v12.28569h25.60396l-3.47262,22.47335h-22.13135v61.96777c41.73058,-5.66931 73.92462,-41.34912 73.92462,-84.63185c0,-47.22231 -38.27769,-85.5 -85.5,-85.5z"></path></g></g></svg>