<?xml version="1.0" encoding="UTF-8"?>
<!DOCTYPE svg PUBLIC "-//W3C//DTD SVG 1.1//EN" "http://www.w3.org/Graphics/SVG/1.1/DTD/svg11.dtd">
<!-- Creator: CorelDRAW 2019 (64-Bit) -->
<svg xmlns="http://www.w3.org/2000/svg" xml:space="preserve" width="1.25732in" height="0.320004in" version="1.1" style="shape-rendering:geometricPrecision; text-rendering:geometricPrecision; image-rendering:optimizeQuality; fill-rule:evenodd; clip-rule:evenodd"
viewBox="0 0 224.7 57.19"
 xmlns:xlink="http://www.w3.org/1999/xlink"
 xmlns:xodm="http://www.corel.com/coreldraw/odm/2003">
 <defs>
  <style type="text/css">
   <![CDATA[
    .fil3 {fill:black}
    .fil2 {fill:black;fill-rule:nonzero}
    .fil1 {fill:white;fill-rule:nonzero}
    .fil0 {fill:url(#id0)}
   ]]>
  </style>
  <linearGradient id="id0" gradientUnits="userSpaceOnUse" x1="15.6" y1="37.35" x2="40.3" y2="20.98">
   <stop offset="0" style="stop-opacity:1; stop-color:black"/>
   <stop offset="1" style="stop-opacity:1; stop-color:#19BE19"/>
  </linearGradient>
 </defs>
 <g id="Layer_x0020_1">
  <metadata id="CorelCorpID_0Corel-Layer"/>
  <g id="_2019659909904">
   <g>
    <polygon class="fil0" points="-0,28.08 28.08,0 56.16,28.08 28.08,56.16 "/>
    <path class="fil1" d="M24.56 30.02l0 0.65c0,1.02 0.25,1.82 0.76,2.39 0.51,0.58 1.17,0.86 1.98,0.86 0.85,0 1.73,-0.2 2.64,-0.6 0.92,-0.4 1.82,-0.93 2.72,-1.59 0.91,-0.66 2.01,-1.55 3.31,-2.66l0 1.59c-1.96,2.36 -3.8,4.17 -5.52,5.42 -1.72,1.25 -3.46,1.89 -5.24,1.89 -1.54,0 -2.77,-0.6 -3.67,-1.8 -0.9,-1.2 -1.35,-2.84 -1.35,-4.93 0,-1.82 0.43,-3.48 1.28,-4.96 0.84,-1.49 2.23,-3.05 4.16,-4.7 1.32,-1.13 2.63,-1.98 3.94,-2.55 1.3,-0.58 2.46,-0.86 3.49,-0.86 0.82,0 1.47,0.19 1.94,0.56 0.48,0.37 0.72,0.93 0.72,1.68 0,1.09 -0.41,2.19 -1.23,3.27 -0.82,1.08 -2.06,2.16 -3.74,3.24 -1.68,1.07 -3.74,2.1 -6.19,3.09zm0.26 -1.69c1.56,-0.61 2.9,-1.37 4.01,-2.27 1.11,-0.9 1.93,-1.77 2.46,-2.59 0.52,-0.83 0.79,-1.43 0.79,-1.81 0,-0.4 -0.18,-0.6 -0.54,-0.6 -0.32,0 -0.83,0.2 -1.53,0.6 -0.7,0.4 -1.41,0.93 -2.13,1.57 -0.72,0.64 -1.36,1.4 -1.94,2.27 -0.57,0.86 -0.94,1.81 -1.12,2.84z"/>
   </g>
   <path class="fil2" d="M87.36 39.15l2.17 -5.27c2.31,1.63 4.59,2.44 6.83,2.44 3.44,0 5.17,-1.2 5.17,-3.6 0,-1.12 -0.41,-2.19 -1.22,-3.21 -0.81,-1.02 -2.48,-2.16 -5.02,-3.43 -2.54,-1.26 -4.25,-2.31 -5.13,-3.12 -0.88,-0.82 -1.56,-1.79 -2.03,-2.91 -0.48,-1.13 -0.71,-2.38 -0.71,-3.74 0,-2.55 0.94,-4.67 2.81,-6.34 1.87,-1.68 4.27,-2.52 7.2,-2.52 3.81,0 6.62,0.71 8.4,2.14l-1.78 5.05c-2.06,-1.48 -4.23,-2.21 -6.51,-2.21 -1.35,0 -2.4,0.35 -3.14,1.07 -0.75,0.71 -1.12,1.64 -1.12,2.78 0,1.89 2.1,3.85 6.29,5.89 2.21,1.08 3.81,2.08 4.78,2.98 0.98,0.91 1.72,1.96 2.23,3.17 0.52,1.21 0.77,2.56 0.77,4.04 0,2.67 -1.05,4.87 -3.17,6.59 -2.11,1.73 -4.93,2.59 -8.47,2.59 -3.08,0 -5.86,-0.8 -8.33,-2.39zm43.69 -20.4l-2.41 4.2c-1.32,-1.23 -3.09,-1.84 -5.31,-1.84 -2.13,0 -3.81,0.71 -5.05,2.13 -1.24,1.42 -1.85,3.39 -1.85,5.9 0,5.07 2.41,7.6 7.23,7.6 2.08,0 3.92,-0.69 5.51,-2.08l2.07 4.43c-1.64,1.02 -3.07,1.68 -4.29,1.94 -1.22,0.27 -2.67,0.41 -4.33,0.41 -3.73,0 -6.67,-1.08 -8.82,-3.26 -2.15,-2.17 -3.23,-5.19 -3.23,-9.05 0,-3.81 1.18,-6.88 3.54,-9.23 2.35,-2.34 5.57,-3.51 9.63,-3.51 2.81,0 5.24,0.78 7.31,2.35zm20.33 22.23l0 -14.86c0,-1.48 -0.47,-2.68 -1.4,-3.58 -0.94,-0.9 -2.15,-1.35 -3.66,-1.35 -0.94,0 -1.88,0.25 -2.83,0.75 -0.95,0.51 -1.62,1.08 -2.03,1.72l0 17.31 -5.72 0 0 -33.1 5.72 -1.35 0 11.85c1.46,-1.32 3.46,-1.98 6.01,-1.98 3.02,0 5.37,0.84 7.03,2.51 1.67,1.68 2.5,4.07 2.5,7.2l0 14.88 -5.63 0zm10.14 -12.12c0,-3.68 1.06,-6.68 3.18,-8.99 2.12,-2.31 4.93,-3.48 8.41,-3.48 3.66,0 6.5,1.11 8.53,3.34 2.02,2.22 3.04,5.27 3.04,9.13 0,3.84 -1.03,6.9 -3.09,9.17 -2.07,2.27 -4.89,3.41 -8.47,3.41 -3.67,0 -6.51,-1.15 -8.54,-3.44 -2.04,-2.29 -3.05,-5.34 -3.05,-9.14zm5.86 0c0,5.31 1.91,7.96 5.74,7.96 1.75,0 3.14,-0.69 4.17,-2.07 1.02,-1.38 1.54,-3.35 1.54,-5.9 0,-5.24 -1.9,-7.86 -5.7,-7.86 -1.76,0 -3.15,0.69 -4.18,2.07 -1.04,1.38 -1.55,3.31 -1.55,5.79zm20.25 0c0,-3.68 1.06,-6.68 3.18,-8.99 2.12,-2.31 4.93,-3.48 8.41,-3.48 3.66,0 6.5,1.11 8.53,3.34 2.02,2.22 3.04,5.27 3.04,9.13 0,3.84 -1.03,6.9 -3.09,9.17 -2.07,2.27 -4.89,3.41 -8.47,3.41 -3.67,0 -6.51,-1.15 -8.54,-3.44 -2.04,-2.29 -3.05,-5.34 -3.05,-9.14zm5.86 0c0,5.31 1.91,7.96 5.74,7.96 1.75,0 3.14,-0.69 4.17,-2.07 1.02,-1.38 1.54,-3.35 1.54,-5.9 0,-5.24 -1.9,-7.86 -5.7,-7.86 -1.76,0 -3.15,0.69 -4.18,2.07 -1.04,1.38 -1.55,3.31 -1.55,5.79zm22.79 -20.99l5.63 -1.35 0 27.11c0,2.97 0.89,4.74 2.68,5.31 -0.87,1.67 -2.36,2.5 -4.47,2.5 -2.56,0 -3.84,-1.78 -3.84,-5.32l0 -28.24z"/>
   <polygon class="fil3" points="63.46,24.82 82.91,24.82 82.91,30.18 63.46,30.18 "/>
   <path class="fil2" d="M70.03 52.71l-3.7 0c0,0.6 0.16,1.06 0.49,1.38 0.29,0.28 0.66,0.42 1.12,0.42 0.52,0 0.95,-0.15 1.3,-0.46l0.38 0.66c-0.14,0.14 -0.36,0.26 -0.65,0.37 -0.36,0.14 -0.77,0.2 -1.22,0.2 -0.65,0 -1.19,-0.22 -1.64,-0.66 -0.5,-0.48 -0.75,-1.13 -0.75,-1.95 0,-0.85 0.26,-1.53 0.77,-2.04 0.46,-0.46 1,-0.69 1.63,-0.69 0.73,0 1.31,0.21 1.72,0.62 0.4,0.4 0.6,0.92 0.6,1.58 0,0.2 -0.02,0.39 -0.07,0.56zm-2.21 -1.99c-0.41,0 -0.75,0.13 -1.02,0.4 -0.26,0.25 -0.41,0.56 -0.45,0.94l2.85 0c0,-0.37 -0.11,-0.68 -0.34,-0.93 -0.25,-0.27 -0.6,-0.41 -1.03,-0.41zm9.88 4.47l0 -4.37 -2.23 0 0 4.37 -0.92 0 0 -4.37 -2.24 0 0 4.37 -0.91 0 0 -4.37 -0.84 0 0 -0.76 0.84 0c0,-0.61 0.16,-1.1 0.48,-1.46 0.32,-0.36 0.75,-0.54 1.29,-0.54 0.31,0 0.6,0.05 0.86,0.14l-0.18 0.7c-0.23,-0.08 -0.45,-0.12 -0.66,-0.12 -0.26,0 -0.47,0.1 -0.63,0.31 -0.16,0.21 -0.24,0.5 -0.24,0.88l0 0.1 2.24 0c0,-0.67 0.15,-1.19 0.45,-1.56 0.3,-0.36 0.74,-0.54 1.32,-0.54 0.31,0 0.59,0.04 0.85,0.13l-0.18 0.71c-0.24,-0.09 -0.45,-0.13 -0.66,-0.13 -0.58,0 -0.87,0.43 -0.87,1.27l0 0.11 3.15 0 0 5.13 -0.91 0zm0.96 -6.52c0,0.16 -0.06,0.3 -0.16,0.41 -0.11,0.11 -0.24,0.17 -0.39,0.17 -0.16,0 -0.29,-0.06 -0.4,-0.17 -0.11,-0.11 -0.17,-0.25 -0.17,-0.4 0,-0.15 0.06,-0.28 0.17,-0.39 0.11,-0.11 0.24,-0.17 0.4,-0.17 0.15,0 0.28,0.05 0.39,0.16 0.11,0.11 0.17,0.24 0.17,0.39zm5.15 1.8l-0.45 0.64c-0.09,-0.09 -0.26,-0.18 -0.5,-0.26 -0.24,-0.08 -0.47,-0.12 -0.7,-0.12 -0.5,0 -0.9,0.17 -1.19,0.52 -0.29,0.35 -0.44,0.82 -0.44,1.43 0,0.6 0.15,1.06 0.44,1.38 0.3,0.32 0.71,0.47 1.24,0.47 0.41,0 0.82,-0.16 1.24,-0.47l0.36 0.77c-0.49,0.31 -1.09,0.47 -1.82,0.47 -0.7,0 -1.28,-0.24 -1.74,-0.71 -0.46,-0.47 -0.69,-1.11 -0.69,-1.91 0,-0.82 0.24,-1.48 0.72,-1.97 0.48,-0.5 1.13,-0.74 1.96,-0.74 0.27,0 0.56,0.06 0.87,0.17 0.31,0.11 0.54,0.23 0.69,0.34zm1.89 -2.35c0.16,0 0.29,0.06 0.4,0.17 0.11,0.11 0.17,0.24 0.17,0.4 0,0.16 -0.06,0.29 -0.17,0.4 -0.11,0.11 -0.24,0.17 -0.4,0.17 -0.15,0 -0.29,-0.06 -0.4,-0.17 -0.11,-0.11 -0.17,-0.24 -0.17,-0.4 0,-0.15 0.05,-0.29 0.16,-0.4 0.11,-0.11 0.24,-0.16 0.4,-0.16zm-0.5 7.08l0 -4.37 -0.71 0 0 -0.76 1.62 0 0 5.13 -0.91 0zm6.69 -2.47l-3.7 0c0,0.6 0.16,1.06 0.49,1.38 0.29,0.28 0.66,0.42 1.12,0.42 0.52,0 0.95,-0.15 1.3,-0.46l0.38 0.66c-0.14,0.14 -0.36,0.26 -0.65,0.37 -0.36,0.14 -0.77,0.2 -1.22,0.2 -0.65,0 -1.19,-0.22 -1.64,-0.66 -0.5,-0.48 -0.75,-1.13 -0.75,-1.95 0,-0.85 0.26,-1.53 0.77,-2.04 0.46,-0.46 1,-0.69 1.63,-0.69 0.73,0 1.31,0.21 1.72,0.62 0.4,0.4 0.6,0.92 0.6,1.58 0,0.2 -0.02,0.39 -0.07,0.56zm-2.21 -1.99c-0.41,0 -0.75,0.13 -1.02,0.4 -0.26,0.25 -0.41,0.56 -0.45,0.94l2.85 0c0,-0.37 -0.11,-0.68 -0.35,-0.93 -0.25,-0.27 -0.6,-0.41 -1.03,-0.41zm6.4 4.47l0 -2.99c0,-0.55 -0.08,-0.93 -0.25,-1.15 -0.16,-0.22 -0.44,-0.33 -0.83,-0.33 -0.21,0 -0.43,0.06 -0.65,0.19 -0.23,0.13 -0.4,0.28 -0.52,0.46l0 3.82 -0.91 0 0 -5.13 0.62 0 0.29 0.66c0.3,-0.51 0.79,-0.76 1.47,-0.76 1.13,0 1.69,0.68 1.69,2.05l0 3.18 -0.91 0zm2.53 -4.42l-0.6 0 0 -0.72 0.6 0 0 -1.07 0.91 -0.35 0 1.42 1.41 0 0 0.72 -1.41 0 0 2.55c0,0.43 0.07,0.74 0.22,0.92 0.15,0.18 0.38,0.27 0.71,0.27 0.23,0 0.48,-0.06 0.73,-0.18l0.13 0.8c-0.38,0.1 -0.79,0.14 -1.25,0.14 -0.41,0 -0.75,-0.15 -1.03,-0.45 -0.28,-0.3 -0.42,-0.68 -0.42,-1.14l0 -2.92zm6.28 4.09l0.35 -0.88c0.18,0.13 0.4,0.24 0.67,0.33 0.27,0.09 0.51,0.13 0.72,0.13 0.37,0 0.68,-0.1 0.9,-0.31 0.23,-0.2 0.34,-0.46 0.34,-0.78 0,-0.24 -0.06,-0.46 -0.19,-0.66 -0.13,-0.2 -0.44,-0.42 -0.95,-0.66l-0.57 -0.26c-0.48,-0.22 -0.82,-0.49 -1.01,-0.8 -0.19,-0.31 -0.29,-0.68 -0.29,-1.11 0,-0.52 0.19,-0.96 0.56,-1.31 0.37,-0.34 0.85,-0.52 1.43,-0.52 0.78,0 1.32,0.13 1.62,0.38l-0.28 0.84c-0.13,-0.09 -0.32,-0.19 -0.59,-0.27 -0.26,-0.09 -0.51,-0.13 -0.73,-0.13 -0.33,0 -0.58,0.09 -0.77,0.28 -0.19,0.19 -0.28,0.42 -0.28,0.71 0,0.18 0.03,0.34 0.1,0.49 0.07,0.15 0.16,0.27 0.28,0.37 0.12,0.1 0.37,0.24 0.74,0.42l0.58 0.27c0.48,0.23 0.82,0.5 1.01,0.81 0.19,0.32 0.29,0.71 0.29,1.2 0,0.53 -0.21,0.97 -0.64,1.34 -0.42,0.37 -0.99,0.55 -1.7,0.55 -0.62,0 -1.16,-0.15 -1.6,-0.44zm8.87 -4.4l-0.45 0.64c-0.09,-0.09 -0.26,-0.18 -0.5,-0.26 -0.24,-0.08 -0.47,-0.12 -0.7,-0.12 -0.5,0 -0.9,0.17 -1.19,0.52 -0.29,0.35 -0.44,0.82 -0.44,1.43 0,0.6 0.15,1.06 0.44,1.38 0.3,0.32 0.71,0.47 1.24,0.47 0.41,0 0.82,-0.16 1.24,-0.47l0.36 0.77c-0.49,0.31 -1.09,0.47 -1.82,0.47 -0.7,0 -1.28,-0.24 -1.74,-0.71 -0.46,-0.47 -0.69,-1.11 -0.69,-1.91 0,-0.82 0.24,-1.48 0.72,-1.97 0.48,-0.5 1.13,-0.74 1.96,-0.74 0.27,0 0.56,0.06 0.87,0.17 0.31,0.11 0.54,0.23 0.69,0.34zm4.11 4.72l0 -3.23c0,-0.38 -0.09,-0.69 -0.28,-0.91 -0.19,-0.22 -0.45,-0.33 -0.8,-0.33 -0.22,0 -0.44,0.07 -0.66,0.19 -0.22,0.13 -0.39,0.28 -0.51,0.45l0 3.82 -0.91 0 0 -7.23 0.91 0 0 2.66c0.12,-0.19 0.32,-0.34 0.59,-0.47 0.27,-0.13 0.55,-0.19 0.83,-0.19 0.54,0 0.97,0.18 1.28,0.54 0.31,0.36 0.46,0.85 0.46,1.47l0 3.23 -0.91 0zm1.87 -2.58c0,-0.79 0.21,-1.43 0.64,-1.92 0.43,-0.49 0.99,-0.73 1.68,-0.73 0.73,0 1.3,0.23 1.71,0.7 0.41,0.47 0.61,1.12 0.61,1.95 0,0.83 -0.21,1.48 -0.62,1.96 -0.42,0.48 -0.98,0.72 -1.69,0.72 -0.73,0 -1.3,-0.24 -1.71,-0.72 -0.41,-0.48 -0.61,-1.13 -0.61,-1.95zm0.96 0c0,1.29 0.45,1.93 1.36,1.93 0.42,0 0.75,-0.17 0.99,-0.52 0.24,-0.34 0.36,-0.82 0.36,-1.41 0,-1.27 -0.45,-1.91 -1.36,-1.91 -0.42,0 -0.75,0.17 -0.99,0.51 -0.25,0.34 -0.37,0.8 -0.37,1.4zm4.3 0c0,-0.79 0.21,-1.43 0.64,-1.92 0.43,-0.49 0.99,-0.73 1.68,-0.73 0.73,0 1.3,0.23 1.71,0.7 0.41,0.47 0.61,1.12 0.61,1.95 0,0.83 -0.21,1.48 -0.62,1.96 -0.42,0.48 -0.98,0.72 -1.69,0.72 -0.73,0 -1.3,-0.24 -1.71,-0.72 -0.41,-0.48 -0.61,-1.13 -0.61,-1.95zm0.96 0c0,1.29 0.45,1.93 1.36,1.93 0.42,0 0.75,-0.17 0.99,-0.52 0.24,-0.34 0.36,-0.82 0.36,-1.41 0,-1.27 -0.45,-1.91 -1.36,-1.91 -0.42,0 -0.75,0.17 -0.99,0.51 -0.25,0.34 -0.37,0.8 -0.37,1.4zm4.71 1.13l0 -5.78 0.91 0 0 5.63c0,0.28 0.08,0.49 0.24,0.65 0.16,0.16 0.36,0.24 0.62,0.24l0 0.81c-1.18,0 -1.77,-0.52 -1.77,-1.55zm11.13 1.45l-0.83 -4.5 -1.54 4.6 -0.24 0 -1.58 -4.6 -0.81 4.5 -0.91 0 1.32 -7.02 0.43 0 1.68 5.12 1.54 -5.12 0.43 0 1.42 7.02 -0.91 0zm4.51 -0.59c-0.36,0.46 -0.92,0.69 -1.67,0.69 -0.4,0 -0.75,-0.15 -1.05,-0.44 -0.3,-0.29 -0.44,-0.66 -0.44,-1.09 0,-0.52 0.23,-0.96 0.68,-1.32 0.45,-0.36 1.03,-0.54 1.74,-0.54 0.19,0 0.41,0.04 0.65,0.13 0,-0.83 -0.37,-1.25 -1.11,-1.25 -0.57,0 -1.01,0.15 -1.31,0.46l-0.38 -0.77c0.17,-0.14 0.41,-0.26 0.72,-0.36 0.31,-0.1 0.6,-0.15 0.88,-0.15 0.74,0 1.29,0.17 1.62,0.51 0.34,0.34 0.51,0.88 0.51,1.62l0 1.84c0,0.45 0.13,0.75 0.4,0.9l0 0.45c-0.37,0 -0.65,-0.05 -0.83,-0.16 -0.19,-0.1 -0.32,-0.28 -0.4,-0.52zm-0.09 -1.93c-0.29,-0.07 -0.49,-0.1 -0.6,-0.1 -0.46,0 -0.83,0.12 -1.12,0.36 -0.29,0.24 -0.44,0.52 -0.44,0.84 0,0.53 0.31,0.8 0.94,0.8 0.46,0 0.87,-0.22 1.22,-0.66l0 -1.25zm5.51 2.52l0 -2.99c0,-0.55 -0.08,-0.93 -0.25,-1.15 -0.16,-0.22 -0.44,-0.33 -0.83,-0.33 -0.21,0 -0.42,0.06 -0.65,0.19 -0.23,0.13 -0.4,0.28 -0.52,0.46l0 3.82 -0.91 0 0 -5.13 0.62 0 0.29 0.66c0.3,-0.51 0.79,-0.76 1.47,-0.76 1.13,0 1.69,0.68 1.69,2.05l0 3.18 -0.91 0zm5.09 -0.59c-0.36,0.46 -0.92,0.69 -1.67,0.69 -0.4,0 -0.75,-0.15 -1.04,-0.44 -0.3,-0.29 -0.44,-0.66 -0.44,-1.09 0,-0.52 0.23,-0.96 0.68,-1.32 0.45,-0.36 1.03,-0.54 1.74,-0.54 0.19,0 0.41,0.04 0.65,0.13 0,-0.83 -0.37,-1.25 -1.11,-1.25 -0.57,0 -1.01,0.15 -1.31,0.46l-0.38 -0.77c0.17,-0.14 0.41,-0.26 0.72,-0.36 0.31,-0.1 0.6,-0.15 0.87,-0.15 0.74,0 1.29,0.17 1.62,0.51 0.34,0.34 0.51,0.88 0.51,1.62l0 1.84c0,0.45 0.13,0.75 0.4,0.9l0 0.45c-0.37,0 -0.65,-0.05 -0.83,-0.16 -0.19,-0.1 -0.32,-0.28 -0.4,-0.52zm-0.09 -1.93c-0.29,-0.07 -0.49,-0.1 -0.6,-0.1 -0.46,0 -0.83,0.12 -1.12,0.36 -0.29,0.24 -0.43,0.52 -0.43,0.84 0,0.53 0.31,0.8 0.94,0.8 0.46,0 0.86,-0.22 1.22,-0.66l0 -1.25zm2.16 3.93l0.49 -0.73c0.53,0.35 1.02,0.53 1.47,0.53 0.41,0 0.74,-0.07 0.98,-0.21 0.24,-0.14 0.36,-0.32 0.36,-0.53 0,-0.41 -0.3,-0.62 -0.9,-0.62 -0.1,0 -0.29,0.03 -0.56,0.08 -0.27,0.05 -0.48,0.08 -0.63,0.08 -0.73,0 -1.09,-0.27 -1.09,-0.83 0,-0.17 0.08,-0.32 0.25,-0.46 0.17,-0.14 0.38,-0.24 0.63,-0.3 -0.72,-0.34 -1.08,-0.93 -1.08,-1.77 0,-0.54 0.19,-0.98 0.56,-1.34 0.37,-0.36 0.84,-0.54 1.39,-0.54 0.51,0 0.9,0.1 1.18,0.31l0.46 -0.55 0.59 0.56 -0.55 0.41c0.23,0.3 0.35,0.7 0.35,1.19 0,0.52 -0.16,0.95 -0.48,1.31 -0.32,0.35 -0.75,0.55 -1.27,0.6l-0.75 0.08c-0.09,0.01 -0.21,0.04 -0.36,0.1 -0.15,0.06 -0.22,0.14 -0.22,0.23 0,0.13 0.16,0.2 0.47,0.2 0.14,0 0.35,-0.02 0.64,-0.07 0.29,-0.05 0.51,-0.07 0.65,-0.07 0.51,0 0.9,0.12 1.18,0.36 0.28,0.24 0.42,0.58 0.42,1 0,0.47 -0.21,0.85 -0.63,1.14 -0.42,0.29 -0.96,0.43 -1.61,0.43 -0.33,0 -0.68,-0.06 -1.05,-0.18 -0.37,-0.12 -0.66,-0.26 -0.89,-0.43zm1.93 -5.9c-0.32,0 -0.58,0.11 -0.78,0.34 -0.2,0.22 -0.3,0.5 -0.3,0.82 0,0.36 0.1,0.66 0.29,0.89 0.19,0.24 0.46,0.35 0.79,0.35 0.32,0 0.58,-0.11 0.76,-0.34 0.18,-0.23 0.27,-0.53 0.27,-0.9 0,-0.32 -0.1,-0.59 -0.3,-0.82 -0.2,-0.22 -0.44,-0.34 -0.74,-0.34zm7.51 2.02l-3.7 0c0,0.6 0.16,1.06 0.49,1.38 0.29,0.28 0.66,0.42 1.12,0.42 0.52,0 0.95,-0.15 1.3,-0.46l0.38 0.66c-0.14,0.14 -0.36,0.26 -0.65,0.37 -0.37,0.14 -0.77,0.2 -1.22,0.2 -0.65,0 -1.19,-0.22 -1.64,-0.66 -0.5,-0.48 -0.75,-1.13 -0.75,-1.95 0,-0.85 0.26,-1.53 0.77,-2.04 0.46,-0.46 1,-0.69 1.63,-0.69 0.73,0 1.31,0.21 1.72,0.62 0.4,0.4 0.6,0.92 0.6,1.58 0,0.2 -0.02,0.39 -0.07,0.56zm-2.21 -1.99c-0.41,0 -0.75,0.13 -1.02,0.4 -0.26,0.25 -0.41,0.56 -0.45,0.94l2.85 0c0,-0.37 -0.11,-0.68 -0.34,-0.93 -0.25,-0.27 -0.6,-0.41 -1.03,-0.41zm9.18 4.47l0 -3.25c0,-0.81 -0.35,-1.21 -1.05,-1.21 -0.22,0 -0.43,0.07 -0.62,0.2 -0.19,0.14 -0.32,0.29 -0.39,0.46l0 3.8 -0.91 0 0 -3.65c0,-0.25 -0.09,-0.45 -0.28,-0.6 -0.19,-0.14 -0.44,-0.22 -0.76,-0.22 -0.18,0 -0.38,0.07 -0.58,0.21 -0.21,0.14 -0.35,0.3 -0.44,0.47l0 3.79 -0.91 0 0 -5.13 0.6 0 0.3 0.59c0.35,-0.46 0.79,-0.69 1.32,-0.69 0.74,0 1.25,0.23 1.54,0.69 0.1,-0.19 0.29,-0.36 0.57,-0.49 0.28,-0.13 0.56,-0.2 0.86,-0.2 0.53,0 0.94,0.16 1.23,0.47 0.29,0.31 0.44,0.76 0.44,1.32l0 3.43 -0.91 0zm6.52 -2.47l-3.7 0c0,0.6 0.16,1.06 0.49,1.38 0.29,0.28 0.66,0.42 1.12,0.42 0.52,0 0.95,-0.15 1.3,-0.46l0.38 0.66c-0.14,0.14 -0.36,0.26 -0.65,0.37 -0.37,0.14 -0.77,0.2 -1.22,0.2 -0.65,0 -1.19,-0.22 -1.64,-0.66 -0.5,-0.48 -0.75,-1.13 -0.75,-1.95 0,-0.85 0.26,-1.53 0.77,-2.04 0.46,-0.46 1,-0.69 1.63,-0.69 0.73,0 1.31,0.21 1.72,0.62 0.4,0.4 0.6,0.92 0.6,1.58 0,0.2 -0.02,0.39 -0.07,0.56zm-2.21 -1.99c-0.41,0 -0.75,0.13 -1.02,0.4 -0.26,0.25 -0.41,0.56 -0.45,0.94l2.85 0c0,-0.37 -0.11,-0.68 -0.34,-0.93 -0.25,-0.27 -0.6,-0.41 -1.03,-0.41zm6.4 4.47l0 -2.99c0,-0.55 -0.08,-0.93 -0.25,-1.15 -0.16,-0.22 -0.44,-0.33 -0.83,-0.33 -0.21,0 -0.42,0.06 -0.65,0.19 -0.23,0.13 -0.4,0.28 -0.52,0.46l0 3.82 -0.91 0 0 -5.13 0.62 0 0.29 0.66c0.3,-0.51 0.79,-0.76 1.47,-0.76 1.13,0 1.69,0.68 1.69,2.05l0 3.18 -0.91 0zm2.53 -4.42l-0.6 0 0 -0.72 0.6 0 0 -1.07 0.91 -0.35 0 1.42 1.41 0 0 0.72 -1.41 0 0 2.55c0,0.43 0.07,0.74 0.22,0.92 0.14,0.18 0.38,0.27 0.7,0.27 0.23,0 0.48,-0.06 0.73,-0.18l0.13 0.8c-0.38,0.1 -0.79,0.14 -1.25,0.14 -0.41,0 -0.75,-0.15 -1.03,-0.45 -0.28,-0.3 -0.42,-0.68 -0.42,-1.14l0 -2.92zm6.28 4.09l0.35 -0.88c0.18,0.13 0.4,0.24 0.67,0.33 0.27,0.09 0.51,0.13 0.72,0.13 0.38,0 0.68,-0.1 0.9,-0.31 0.23,-0.2 0.34,-0.46 0.34,-0.78 0,-0.24 -0.06,-0.46 -0.19,-0.66 -0.13,-0.2 -0.45,-0.42 -0.95,-0.66l-0.57 -0.26c-0.48,-0.22 -0.82,-0.49 -1.01,-0.8 -0.19,-0.31 -0.29,-0.68 -0.29,-1.11 0,-0.52 0.19,-0.96 0.56,-1.31 0.37,-0.34 0.85,-0.52 1.43,-0.52 0.78,0 1.32,0.13 1.62,0.38l-0.28 0.84c-0.13,-0.09 -0.32,-0.19 -0.59,-0.27 -0.26,-0.09 -0.51,-0.13 -0.73,-0.13 -0.33,0 -0.58,0.09 -0.77,0.28 -0.19,0.19 -0.28,0.42 -0.28,0.71 0,0.18 0.03,0.34 0.1,0.49 0.07,0.15 0.16,0.27 0.28,0.37 0.12,0.1 0.37,0.24 0.74,0.42l0.58 0.27c0.48,0.23 0.82,0.5 1.01,0.81 0.19,0.32 0.29,0.71 0.29,1.2 0,0.53 -0.21,0.97 -0.64,1.34 -0.42,0.37 -0.99,0.55 -1.7,0.55 -0.62,0 -1.16,-0.15 -1.6,-0.44zm6.93 1.2c-0.12,0.33 -0.37,0.6 -0.74,0.81 -0.38,0.22 -0.8,0.33 -1.26,0.33l0 -0.81c0.38,0 0.71,-0.09 0.98,-0.27 0.27,-0.18 0.41,-0.39 0.41,-0.65 0,-0.28 -0.05,-0.56 -0.15,-0.83 -0.1,-0.27 -0.23,-0.61 -0.38,-1.01l-1.39 -3.57 0.93 0 1.51 3.97 1.35 -3.97 0.93 0 -2.17 6zm2.55 -1.18l0.32 -0.86c0.51,0.33 0.91,0.5 1.22,0.5 0.56,0 0.84,-0.24 0.84,-0.71 0,-0.34 -0.27,-0.63 -0.81,-0.88 -0.42,-0.19 -0.7,-0.34 -0.84,-0.44 -0.15,-0.1 -0.27,-0.21 -0.38,-0.34 -0.11,-0.13 -0.19,-0.26 -0.24,-0.4 -0.05,-0.14 -0.08,-0.29 -0.08,-0.46 0,-0.42 0.15,-0.75 0.46,-0.99 0.31,-0.24 0.71,-0.36 1.2,-0.36 0.38,0 0.85,0.12 1.42,0.36l-0.26 0.84c-0.36,-0.29 -0.72,-0.43 -1.09,-0.43 -0.22,0 -0.4,0.05 -0.55,0.15 -0.15,0.1 -0.22,0.23 -0.22,0.39 0,0.33 0.19,0.58 0.56,0.75l0.65 0.3c0.4,0.18 0.69,0.39 0.87,0.62 0.18,0.23 0.27,0.53 0.27,0.88 0,0.46 -0.16,0.82 -0.48,1.08 -0.32,0.26 -0.77,0.39 -1.34,0.39 -0.54,0 -1.05,-0.13 -1.52,-0.4zm4.63 -4.11l-0.6 0 0 -0.72 0.6 0 0 -1.07 0.91 -0.35 0 1.42 1.41 0 0 0.72 -1.41 0 0 2.55c0,0.43 0.07,0.74 0.22,0.92 0.14,0.18 0.38,0.27 0.7,0.27 0.23,0 0.48,-0.06 0.73,-0.18l0.13 0.8c-0.38,0.1 -0.79,0.14 -1.25,0.14 -0.41,0 -0.75,-0.15 -1.03,-0.45 -0.28,-0.3 -0.42,-0.68 -0.42,-1.14l0 -2.92zm7.89 1.94l-3.7 0c0,0.6 0.16,1.06 0.49,1.38 0.29,0.28 0.66,0.42 1.12,0.42 0.52,0 0.95,-0.15 1.3,-0.46l0.38 0.66c-0.14,0.14 -0.36,0.26 -0.65,0.37 -0.36,0.14 -0.77,0.2 -1.22,0.2 -0.65,0 -1.19,-0.22 -1.64,-0.66 -0.5,-0.48 -0.75,-1.13 -0.75,-1.95 0,-0.85 0.26,-1.53 0.77,-2.04 0.46,-0.46 1,-0.69 1.63,-0.69 0.73,0 1.31,0.21 1.72,0.62 0.4,0.4 0.6,0.92 0.6,1.58 0,0.2 -0.02,0.39 -0.07,0.56zm-2.21 -1.99c-0.41,0 -0.75,0.13 -1.02,0.4 -0.26,0.25 -0.41,0.56 -0.45,0.94l2.85 0c0,-0.37 -0.11,-0.68 -0.35,-0.93 -0.25,-0.27 -0.6,-0.41 -1.03,-0.41zm9.18 4.47l0 -3.25c0,-0.81 -0.35,-1.21 -1.05,-1.21 -0.22,0 -0.43,0.07 -0.62,0.2 -0.19,0.14 -0.32,0.29 -0.39,0.46l0 3.8 -0.91 0 0 -3.65c0,-0.25 -0.09,-0.45 -0.28,-0.6 -0.19,-0.14 -0.44,-0.22 -0.76,-0.22 -0.18,0 -0.38,0.07 -0.58,0.21 -0.21,0.14 -0.35,0.3 -0.44,0.47l0 3.79 -0.91 0 0 -5.13 0.6 0 0.3 0.59c0.35,-0.46 0.79,-0.69 1.32,-0.69 0.74,0 1.25,0.23 1.54,0.69 0.1,-0.19 0.29,-0.36 0.57,-0.49 0.28,-0.13 0.56,-0.2 0.86,-0.2 0.53,0 0.94,0.16 1.23,0.47 0.29,0.31 0.44,0.76 0.44,1.32l0 3.43 -0.91 0z"/>
  </g>
 </g>
</svg>
