<svg xmlns="http://www.w3.org/2000/svg" x="0px" y="0px"
width="26" height="26"
viewBox="0 0 171 171"
style=" fill:#000000;"><g fill="none" fill-rule="nonzero" stroke="none" stroke-width="1" stroke-linecap="butt" stroke-linejoin="miter" stroke-miterlimit="10" stroke-dasharray="" stroke-dashoffset="0" font-family="none" font-weight="none" font-size="none" text-anchor="none" style="mix-blend-mode: normal"><path d="M0,171.98863v-171.98863h171.98863v171.98863z" fill="none"></path><g fill="#2ecc71"><path d="M72.34615,0c-10.89303,0 -19.73077,8.83774 -19.73077,19.73077v52.61538h-21.375c-9.27449,0 -11.22701,1.49009 -3.28846,9.45433l43.36659,43.36659c14.46409,14.46409 14.28425,14.51547 28.77404,0l43.16106,-43.36659c7.93855,-7.96424 5.29237,-9.45433 -3.08293,-9.45433h-21.78606v-52.61538c0,-10.89303 -8.83774,-19.73077 -19.73077,-19.73077zM0,124.96154v26.30769c0,10.89303 8.83774,19.73077 19.73077,19.73077h131.53846c10.89303,0 19.73077,-8.83774 19.73077,-19.73077v-26.30769h-13.15385v26.30769c0,3.62244 -2.95448,6.57692 -6.57692,6.57692h-131.53846c-3.62244,0 -6.57692,-2.95448 -6.57692,-6.57692v-26.30769z"></path></g></g></svg>