<svg xmlns="http://www.w3.org/2000/svg" x="0px" y="0px"
width="24" height="24"
viewBox="0 0 171 171"
style=" fill:#000000;"><g fill="none" fill-rule="nonzero" stroke="none" stroke-width="1" stroke-linecap="butt" stroke-linejoin="miter" stroke-miterlimit="10" stroke-dasharray="" stroke-dashoffset="0" font-family="none" font-weight="none" font-size="none" text-anchor="none" style="mix-blend-mode: normal"><path d="M0,171.98863v-171.98863h171.98863v171.98863z" fill="none"></path><g fill="#2ecc71"><path d="M171,30.64306c-6.40136,2.83887 -12.83056,4.98194 -19.95556,5.70557c7.125,-4.28614 12.83056,-11.41114 15.66944,-19.25977c-7.125,4.28613 -14.25,7.125 -22.07081,8.57227c-7.125,-7.125 -16.39306,-11.41114 -26.35693,-11.41114c-19.25977,0 -34.9292,15.66944 -34.9292,34.90137c0,2.86669 0,5.70556 0.72363,7.84863c-29.22363,-1.41944 -54.85693,-14.97363 -71.97363,-36.34863c-3.5625,5.00977 -4.98194,11.41113 -4.98194,17.8125c0,12.13477 6.40137,22.82227 15.66944,29.22363c-5.70556,-0.72363 -11.3833,-2.14306 -15.66944,-4.28613c0,0 0,0 0,0.72363c0,17.08887 12.10694,31.33887 27.77637,34.20556c-2.83887,0.69581 -5.67773,1.41944 -9.24023,1.41944c-2.14307,0 -4.28614,0 -6.4292,-0.72363c4.28613,14.25 17.1167,24.24169 32.78613,24.24169c-12.10693,9.26807 -27.08056,14.94581 -43.47363,14.94581c-2.83887,0 -5.70556,0 -8.54444,-0.69581c15.66944,9.96387 34.20556,15.66944 53.4375,15.66944c64.84864,0 99.75,-53.4375 99.75,-99.75c0,-1.41944 0,-2.83886 0,-4.28613c7.125,-4.98194 12.83056,-11.38331 17.8125,-18.50831"></path></g></g></svg>